<?xml version="1.0" encoding="UTF-8" standalone="no"?>
<!-- Created with Inkscape (http://www.inkscape.org/) -->

<svg
   xmlns:dc="http://purl.org/dc/elements/1.1/"
   xmlns:cc="http://creativecommons.org/ns#"
   xmlns:rdf="http://www.w3.org/1999/02/22-rdf-syntax-ns#"
   xmlns:svg="http://www.w3.org/2000/svg"
   xmlns="http://www.w3.org/2000/svg"
   xmlns:sodipodi="http://sodipodi.sourceforge.net/DTD/sodipodi-0.dtd"
   xmlns:inkscape="http://www.inkscape.org/namespaces/inkscape"
   width="2448.73"
   height="520"
   id="svg11411"
   version="1.1"
   inkscape:version="0.48.1 "
   sodipodi:docname="Neues Dokument 2">
  <defs
     id="defs11413" />
  <sodipodi:namedview
     id="base"
     pagecolor="#ffffff"
     bordercolor="#666666"
     borderopacity="1.0"
     inkscape:pageopacity="0.0"
     inkscape:pageshadow="2"
     inkscape:zoom="0.63819371"
     inkscape:cx="1224.3649"
     inkscape:cy="260"
     inkscape:document-units="px"
     inkscape:current-layer="layer1"
     showgrid="false"
     fit-margin-top="0"
     fit-margin-left="0"
     fit-margin-right="0"
     fit-margin-bottom="0"
     inkscape:window-width="1680"
     inkscape:window-height="990"
     inkscape:window-x="-4"
     inkscape:window-y="-4"
     inkscape:window-maximized="1" />
  <metadata
     id="metadata11416">
    <rdf:RDF>
      <cc:Work
         rdf:about="">
        <dc:format>image/svg+xml</dc:format>
        <dc:type
           rdf:resource="http://purl.org/dc/dcmitype/StillImage" />
        <dc:title></dc:title>
      </cc:Work>
    </rdf:RDF>
  </metadata>
  <g
     inkscape:label="Ebene 1"
     inkscape:groupmode="layer"
     id="layer1"
     transform="translate(-2.5479041,187.38585)">
    <g
       id="g8022"
       transform="matrix(12.034853,0,0,-12.034853,2461.1953,-172.83668)"
       style="fill:#000000;fill-opacity:1">
      <path
         d="m -197.046,-26.442 8.2,0 c 3.255,0 5.127,1.424 5.127,4.671 0,2.802 -2.408,3.993 -4.814,3.993 l -8.513,0 z m 0,13.552 7.845,0 c 2.628,0 4.723,1.393 4.723,3.927 0,2.627 -1.871,3.427 -4.902,3.427 l -7.666,0 z m -6.417,12.869 15.554,0 c 7.842,0 9.851,-4.891 9.851,-8.183 0,-4.582 -2.587,-5.872 -3.924,-6.539 3.924,-1.469 4.947,-4.581 4.947,-7.74 0,-2.535 -1.068,-4.938 -2.763,-6.583 -1.827,-1.78 -3.566,-2.892 -10.117,-2.892 l -13.548,0"
         style="fill:#000000;fill-opacity:1;fill-rule:nonzero;stroke:none"
         id="path8024"
         inkscape:connector-curvature="0"
         sodipodi:nodetypes="cssscccssscccsscscsc" />
    </g>
    <g
       id="g8026"
       transform="matrix(12.034853,0,0,-12.034853,474.43367,-17.334342)"
       style="fill:#000000;fill-opacity:1">
      <path
         d="m 0,0 c -4.813,0 -5.706,-4.182 -5.706,-7.205 0,-3.026 0.893,-7.205 5.706,-7.205 4.813,0 5.706,4.179 5.706,7.205 C 5.706,-4.182 4.813,0 0,0 m 0,-19.66 c -6.374,0 -12.123,3.915 -12.123,12.455 0,8.54 5.749,12.451 12.123,12.451 6.373,0 12.123,-3.911 12.123,-12.451 0,-8.54 -5.75,-12.455 -12.123,-12.455"
         style="fill:#000000;fill-opacity:1;fill-rule:nonzero;stroke:none"
         id="path8028"
         inkscape:connector-curvature="0" />
    </g>
    <g
       id="g8030"
       transform="matrix(12.034853,0,0,-12.034853,877.25272,-43.510147)"
       style="fill:#000000;fill-opacity:1">
      <path
         d="m 0,0 c -0.527,1.868 -1.539,5.392 -6.995,5.392 -3.166,0 -7.829,-2.086 -7.829,-10.918 0,-5.611 2.328,-10.691 7.829,-10.657 3.65,0.191 5.583,1.483 6.748,5.087 l 6.596,0 c -0.942,-5.403 -5.204,-10.742 -13.474,-10.742 -8.398,-0.22 -14.427,5.612 -14.427,16.4 0,10.917 6.377,16.487 14.514,16.487 C 2.421,11.049 6.246,4.612 6.599,0"
         style="fill:#000000;fill-opacity:1;fill-rule:nonzero;stroke:none"
         id="path8032"
         inkscape:connector-curvature="0" />
    </g>
    <g
       id="g8034"
       transform="matrix(12.034853,0,0,-12.034853,673.20227,175.62046)"
       style="fill:#000000;fill-opacity:1">
      <path
         d="m 0,0 c -2.96,2.875 -4.523,7.292 -4.523,12.77 0,10.123 5.533,16.41 14.439,16.41 10,0 13.228,-7.081 13.553,-10.9 l -6.458,0 c -0.54,1.917 -1.57,5.397 -7.051,5.397 -1.853,0 -7.902,-0.795 -7.902,-10.994 0,-3.806 1.033,-6.93 2.911,-8.79 1.312,-1.301 2.993,-1.955 4.992,-1.941 3.804,0.197 5.65,1.579 6.797,5.085 l 6.456,0 C 22.283,1.897 18.291,-3.556 9.83,-3.556 5.897,-3.659 2.498,-2.43 0,0 m -0.446,25.158 c -2.765,-2.919 -4.227,-7.202 -4.227,-12.388 0,-5.517 1.581,-9.971 4.57,-12.876 2.527,-2.459 5.962,-3.704 9.934,-3.599 8.609,0 12.679,5.82 13.547,10.802 l 0.015,0.087 -6.741,0 -0.017,-0.05 C 15.514,3.659 13.702,2.294 9.958,2.101 8.002,2.088 6.357,2.726 5.074,3.999 3.225,5.833 2.207,8.916 2.207,12.683 c 0,10.059 5.935,10.843 7.753,10.843 5.417,0 6.396,-3.473 6.923,-5.34 l 0.016,-0.053 6.734,0 -0.005,0.08 c -0.294,3.845 -3.538,11.119 -13.712,11.119 -4.192,0 -7.777,-1.444 -10.362,-4.174"
         style="fill:#000000;fill-opacity:1;fill-rule:nonzero;stroke:none"
         id="path8036"
         inkscape:connector-curvature="0" />
    </g>
    <g
       id="g8038"
       transform="matrix(12.034853,0,0,-12.034853,1086.7911,-17.334342)"
       style="fill:#000000;fill-opacity:1">
      <path
         d="m 0,0 c -4.814,0 -5.705,-4.182 -5.705,-7.205 0,-3.026 0.891,-7.205 5.705,-7.205 4.812,0 5.705,4.179 5.705,7.205 C 5.705,-4.182 4.812,0 0,0 m 0,-19.66 c -6.372,0 -12.124,3.915 -12.124,12.455 0,8.54 5.752,12.451 12.124,12.451 6.372,0 12.122,-3.911 12.122,-12.451 0,-8.54 -5.75,-12.455 -12.122,-12.455"
         style="fill:#000000;fill-opacity:1;fill-rule:nonzero;stroke:none"
         id="path8040"
         inkscape:connector-curvature="0" />
    </g>
    <g
       id="g8042"
       transform="matrix(12.034853,0,0,-12.034853,1490.1396,211.77315)"
       style="fill:#000000;fill-opacity:1">
      <path
         d="m 0,0 -6.24,0 0,14.369 c 0,1.733 -0.089,4.67 -4.055,4.67 -2.765,0 -4.903,-1.868 -4.903,-5.47 l 0,-13.569 -6.24,0 0,23.666 5.973,0 0,-3.471 0.089,0 c 0.846,1.424 2.63,4.09 7.132,4.09 C -3.61,24.285 0,21.572 0,16.369 L 0,0 z m 37.503,14.189 c -0.357,3.826 -2.809,4.896 -4.813,4.896 -2.942,0 -4.502,-1.781 -4.858,-4.896 l 9.671,0 z m 5.778,-7.251 c -1.901,-5.704 -6.002,-7.56 -10.059,-7.56 -6.685,0 -11.808,3.203 -11.808,12.945 0,2.845 0.98,11.964 11.366,11.964 4.677,0 11.14,-2.223 11.14,-13.033 l 0,-1.111 -16.268,0 c 0.18,-1.782 0.536,-5.784 5.57,-5.784 1.741,0 3.141,0.831 3.641,2.579"
         style="fill:#000000;fill-opacity:1;fill-rule:nonzero;stroke:none"
         id="path8044"
         inkscape:connector-curvature="0" />
    </g>
    <g
       id="g8046"
       transform="matrix(12.034853,0,0,-12.034853,2156.341,157.70056)"
       style="fill:#000000;fill-opacity:1">
      <path
         d="m 0,0 c 4.011,0 5.497,4.359 5.497,7.163 0,3.735 -1.708,7.405 -5.674,7.405 -4.28,0 -5.305,-3.984 -5.305,-7.762 C -5.482,3.292 -3.966,0 0,0 m -5.482,15.745 0.088,0 c 1.161,1.869 2.898,4.046 7.088,4.046 5.214,0 10.218,-4 10.218,-12.185 0,-6.494 -3.311,-12.721 -10.351,-12.721 -4.369,0 -5.928,2.357 -6.686,3.647 l -0.089,0 0,-12.235 -6.24,0 0,32.875 5.972,0"
         style="fill:#000000;fill-opacity:1;fill-rule:nonzero;stroke:none"
         id="path8048"
         inkscape:connector-curvature="0" />
    </g>
    <g
       id="g8050"
       transform="matrix(12.034853,0,0,-12.034853,2394.5945,-73.031641)"
       style="fill:#000000;fill-opacity:1">
      <path
         d="m 0,0 3.879,0 0,-4.603 -3.879,0 0,-12.701 c 0,-1.379 0.044,-1.914 2.583,-1.914 0.405,0 0.849,0.046 1.296,0.09 l 0,-4.715 c -0.981,-0.046 -1.961,-0.089 -2.944,-0.089 l -0.8,0 c -5.392,0 -6.375,2.044 -6.375,5.116 l 0,14.213 -3.925,0 0,4.603 3.925,0 0,6.402 6.24,0 L 0,0 z m -53.4,-15.037 c -0.224,-2.444 -2.141,-9.251 -10.83,-9.251 -8.914,0 -10.963,6.807 -10.963,11.788 0,7.65 3.34,13.121 11.363,13.121 3.745,0 9.895,-1.691 10.474,-9.076 l -6.328,0 c -0.268,1.557 -1.25,4.006 -4.146,3.827 -3.921,0 -4.947,-3.914 -4.947,-6.849 0,-2.58 0.091,-7.695 4.814,-7.695 3.164,0 4.234,3.023 4.234,4.135"
         style="fill:#000000;fill-opacity:1;fill-rule:nonzero;stroke:none"
         id="path8052"
         inkscape:connector-curvature="0" />
    </g>
  </g>
</svg>
