<?xml version="1.0" encoding="UTF-8" standalone="no"?>
<!DOCTYPE svg PUBLIC "-//W3C//DTD SVG 1.1//EN" "http://www.w3.org/Graphics/SVG/1.1/DTD/svg11.dtd">
<svg width="100%" height="100%" viewBox="0 0 500 164" version="1.1" xmlns="http://www.w3.org/2000/svg" xmlns:xlink="http://www.w3.org/1999/xlink" xml:space="preserve" xmlns:serif="http://www.serif.com/" style="fill-rule:evenodd;clip-rule:evenodd;stroke-linejoin:round;stroke-miterlimit:2;">
    <g transform="matrix(1,0,0,1,-250,-418.242799)">
        <path id="Fill-10" d="M429.306,566.807C419.479,573.364 407.357,575.585 399.252,575.585L250,575.585L250,565.458L285.117,565.458L285.117,427.706L250,427.706L250,418.25L376.292,418.25C376.292,418.25 406.085,417.694 418.502,426.353C432.025,435.782 437.746,453.243 432.008,470.246C427.973,482.201 410.398,490.836 405.67,491.518C403.556,491.818 407.039,492.491 412.052,493.46C418.256,494.659 426.802,496.311 429.983,498.268C434.371,500.97 443.452,505.303 446.527,522.92C448.718,535.455 445.537,547.589 439.413,556.601L439.416,556.598C449.914,551.936 465.587,542.067 472.42,534.963C472.396,534.963 472.098,534.973 472.098,534.973C472.098,534.973 473.617,533.237 475.12,531.528C475.398,531.03 475.601,530.555 475.707,530.124C476.68,526.245 477.701,523.258 478.749,521.227L479.047,520.627C479.949,518.789 481.305,516.009 484.188,515.158C485.3,514.822 487.043,514.68 489.017,515.863C489.905,516.392 491.119,517.572 491.119,520.067C491.119,520.969 490.963,522.037 490.577,523.312C490.245,524.394 489.214,526.001 487.908,527.75C489.746,528.082 491.37,528.642 492.442,529.537C493.904,530.751 494.762,532.514 494.853,534.504C494.86,534.626 494.86,534.748 494.86,534.867C494.86,537.525 493.544,540.034 492.191,541.39L490.916,542.546C472.805,558.688 470.763,565.289 470.73,567.378L470.716,567.68L470.679,567.931C470.676,567.941 470.639,568.212 470.639,568.606C470.639,569.383 470.785,570.627 471.646,571.244C473.392,572.502 474.287,572.349 475.762,572.092L476.79,571.929C479.916,571.532 488.055,565.45 493.701,560.015C496.387,557.431 500.432,552.993 500.802,552.586C501.867,551.267 509.449,541.906 513.332,538.909L517.638,535.315C519.954,533.311 522.141,531.42 524.271,530.087C527.207,528.253 533.152,525.218 539.961,525.483C543.742,525.629 546.255,526.876 547.441,527.463C549.394,528.426 551.191,530.206 552.022,532.01C555.284,539.076 548.811,554.146 546.071,557.852C545.901,558.086 545.735,558.296 545.566,558.52C546.217,558.557 547.017,558.496 547.933,558.306C561.015,555.607 581.724,535.929 587.305,529.921C587.871,529.192 588.41,528.555 588.898,528.012C588.922,527.975 588.973,527.907 588.973,527.907L588.986,527.917C590.8,525.943 592.248,525.265 594.327,526.798C595.005,527.3 595.836,528.188 595.836,529.551C595.836,530.395 595.521,531.416 594.656,532.64C594.399,533.006 593.805,533.695 592.988,534.59C591.998,535.865 590.757,537.472 589.597,538.981C580.224,551.332 569.98,565.61 569.065,568.105C568.377,569.99 568.207,571.024 568.207,571.695C568.207,571.949 568.244,572.099 568.278,572.278C568.831,572.292 569.58,572.2 569.889,572.051C579.634,567.108 600.451,542.7 607.816,533.549C608.93,532.037 609.751,530.989 610.388,530.243C610.395,530.236 610.412,530.212 610.416,530.202L610.419,530.202C611.866,528.524 612.343,528.32 613.33,528.246C614.105,528.185 614.659,528.365 615.448,528.843C616.199,529.291 616.753,530.186 616.753,530.186C616.957,530.528 617.276,531.203 617.276,532.068C617.276,532.695 617.11,533.421 616.608,534.194C616.473,534.404 615.826,535.255 614.808,536.53C609.976,543.053 596.118,562.392 594.975,564.996C593.534,568.519 592.808,570.902 592.808,572.102C592.808,572.231 592.815,572.346 592.828,572.448C592.967,573.269 593.326,573.414 593.76,573.52C594.591,573.669 597.553,573.113 599.252,571.997C606.365,567.345 616.962,557.116 620.392,553.546C620.555,552.22 620.814,550.81 621.292,549.206C623.085,543.242 629.27,534.637 630.395,533.335L630.983,532.552C632.167,530.891 634.974,526.985 639.061,528.711C640.563,529.342 641.096,530.278 641.442,531.149C641.785,531.996 641.785,532.318 641.785,532.936L641.785,532.99C641.785,534.021 641.501,535.16 640.923,536.431C640.158,538.113 632.115,550.495 627.899,556.045C628.131,556.133 628.397,556.201 628.65,556.201C629.564,556.14 633.409,554.957 635.742,553.855C642.193,550.804 664.628,533.431 667.051,530.861C668.74,529.064 670.976,529.312 672.308,530.478C673.243,531.302 673.578,532.177 673.578,533.018C673.578,534.571 672.429,536.012 671.813,536.781L669.148,540.08C669.148,540.08 667.466,542.141 666.04,543.887C670.903,541.07 673.883,540.412 675.825,539.998L676.188,539.917C678.732,539.348 682.321,540.019 684.187,541.409C687.056,543.555 687.191,547.24 686.856,548.902C686.323,551.479 682.166,558.629 680.508,560.782C678.978,562.772 675.154,569.445 674.724,570.506C674.111,572.201 674.098,572.639 674.592,573.615C674.755,573.839 675.724,574.154 677.662,573.689C693.42,569.933 736.656,538.137 742.436,529.111C744.167,526.426 746.091,525.656 748.154,526.819C749.552,527.609 749.999,528.711 749.999,529.829C749.999,531.226 749.3,532.65 748.878,533.511C747.355,536.359 745.569,540.034 745.337,540.94C744.745,543.568 740.73,553.939 738.512,558.76C740.734,559.353 743.351,560.336 743.991,560.577C745.455,561.136 746.362,562.537 746.362,564.018C746.362,564.455 746.279,564.899 746.116,565.333C745.393,567.232 743.261,568.185 741.364,567.462C739.322,566.686 736.546,565.774 735.612,565.648C735.366,565.614 734.968,565.577 734.612,565.543C732.217,569.198 728.732,573.904 725.011,576.803C720.588,580.241 718.902,580.702 715.178,581.495C715.178,581.495 714.908,581.549 714.901,581.553C712.987,581.957 710.187,581.851 708.069,580.339C706.598,579.295 705.657,577.708 705.425,575.887C705.342,575.256 705.304,574.653 705.304,574.076C705.304,571.126 706.284,568.977 707.19,567.638C707.239,567.567 707.675,566.919 708.408,566.027C697.274,573.266 686.371,579.185 679.369,580.85C673.229,582.318 669.501,579.83 668.051,577.002C667.186,575.307 666.878,573.781 666.878,572.401C666.878,570.757 667.318,569.309 667.792,568.003C668.457,566.152 672.89,558.598 674.666,556.282C676.12,554.397 679.148,548.87 679.612,547.443C679.609,547.392 679.595,547.355 679.588,547.304C679.041,547.131 678.172,547.02 677.792,547.104L677.373,547.196C675.026,547.701 670.139,548.752 659.265,557.815C658.476,558.476 654.208,562.823 650.446,566.654L641.631,575.578C636.803,580.385 634.124,581.07 632.816,580.091C631.504,579.111 631.407,578.579 631.068,577.586C630.722,576.589 631.445,575.128 631.445,575.128C631.943,574.135 634.325,571.076 647.027,555.511C643.708,557.786 640.801,559.61 638.893,560.512C636.578,561.61 631.192,563.567 628.704,563.567C626.925,563.567 624.63,562.973 622.848,561.519C617.885,566.384 609.53,574.07 603.289,578.159C600.465,580.007 595.273,581.461 592.048,580.681C588.579,579.847 586.158,577.22 585.565,573.653C585.48,573.168 585.443,572.666 585.443,572.141C585.443,571.076 585.647,569.907 585.948,568.669C581.204,573.168 576.718,576.843 573.215,578.623C570.909,579.786 566.192,580.325 563.69,578.23C562.924,577.586 561.527,576.006 561.13,574.202C560.937,573.361 560.839,572.534 560.839,571.673C560.839,569.913 561.256,568.022 562.145,565.587C562.715,564.014 564.837,560.657 567.557,556.684C561.372,560.929 554.99,564.37 549.426,565.519C546.123,566.201 543.329,565.977 541.071,564.841C540.81,564.719 540.576,564.57 540.342,564.424C539.82,564.922 539.315,565.383 538.823,565.831L538.613,566.018C532.078,571.917 526.154,575.945 521,577.997C518.796,578.872 513.153,580.767 508.379,579.479C504.961,578.554 502.051,576.353 500.593,573.586C499.881,572.233 498.904,569.334 498.904,565.91C498.904,565.673 498.938,565.429 498.945,565.188C498.901,565.232 498.853,565.283 498.806,565.324C497.433,566.65 485.154,578.289 477.728,579.238L477.03,579.35C475.002,579.702 471.604,580.292 467.346,577.224C464.131,574.912 463.26,571.267 463.26,568.578C463.26,568.019 463.324,567.547 463.389,567.093C463.609,560.163 470.795,550.612 486.02,537.047L486.98,536.179C487.173,535.979 487.343,535.548 487.424,535.196C486.322,534.898 484.009,534.681 481.697,534.681C475.308,546.378 448.12,561.361 438.7,564.856C436.886,565.534 434.889,564.673 434.088,562.944C432.578,564.389 430.981,565.691 429.306,566.807ZM383.274,442.258C378.839,428.011 362.474,427.981 350.63,427.706C350.695,433.9 350.667,455.535 350.646,471.699L350.646,471.704C350.638,478.057 350.63,483.564 350.63,486.955C357.276,487.396 364.36,487.44 370.406,485.036C385.254,479.136 387.981,457.373 383.274,442.258ZM350.36,529.879L350.36,529.876C350.312,519.356 350.263,508.749 350.365,498.102C350.371,497.748 350.56,497.743 350.795,497.738C350.859,497.737 350.925,497.735 350.993,497.726C365.398,496.112 380.47,501.011 384.665,515.844C388.419,529.115 387.856,542.978 380.264,554.716C374.011,564.392 361.39,566.738 350.292,566.135C350.474,554.218 350.418,542.109 350.362,529.881L350.362,529.879L350.36,529.879ZM506.565,563.535C508.389,556.693 513.805,549.014 513.859,548.935C513.991,548.749 514.062,548.542 514.154,548.338C515.589,546.792 516.918,545.446 517.837,544.737L522.455,540.889C524.554,539.075 526.531,537.363 528.176,536.336C531.947,533.98 536.141,532.705 539.671,532.844C541.875,532.932 543.296,533.634 544.062,534.01C544.767,534.356 545.238,534.925 545.34,535.115C545.706,535.902 545.669,537.404 545.381,539.228C542.743,541.95 537.087,550.277 536.887,555.868C536.867,556.41 536.873,556.926 536.897,557.421C535.71,558.706 534.71,559.618 533.886,560.361C533.893,560.358 533.672,560.554 533.672,560.554C527.792,565.86 522.611,569.427 518.274,571.149C515.256,572.349 512.048,572.841 510.302,572.366C508.437,571.861 507.416,570.735 507.108,570.155C506.816,569.596 506.27,567.877 506.27,565.903C506.27,565.138 506.351,564.325 506.565,563.535ZM735.872,545.799C734.19,550.197 732.068,555.394 731.179,557.008C731.034,557.262 730.857,557.567 730.694,557.852C728.323,557.73 725.779,557.686 724.087,557.93C722.083,558.215 719.999,558.818 717.978,559.547C724.502,554.926 730.691,550.159 735.872,545.799ZM717.601,567.634C715.822,568.549 713.922,570.821 713.32,571.733C712.887,572.371 712.673,573.154 712.673,574.079C712.673,574.171 712.69,574.269 712.694,574.364C712.912,574.384 713.134,574.401 713.372,574.351L713.642,574.293C716.608,573.659 717.224,573.527 720.488,570.991C722.288,569.591 724.16,567.434 725.877,565.156C725.607,565.173 725.344,565.19 725.133,565.224C722.661,565.576 719.84,566.478 717.601,567.634Z" style="fill:white;"/>
    </g>
</svg>
