<svg xmlns="http://www.w3.org/2000/svg" width="66.03" height="31.26" viewBox="0 0 66.03 31.26"><defs><style>.cls-1{fill:#bb0b80;}</style></defs><title>Asset 1</title><g id="Layer_2" data-name="Layer 2"><g id="Layer_1-2" data-name="Layer 1"><path class="cls-1" d="M19.56,26.24s0,0,0-.07v0h0a6.32,6.32,0,0,0-.32-1h0a2.3,2.3,0,0,0-1.15-1.17,2.15,2.15,0,0,0-.91-.19,2.88,2.88,0,0,0-.8.12,10.83,10.83,0,0,1-2.09.39c-.4,0-.76,0-1.1,0a6.7,6.7,0,0,1-3.2-.7,5.83,5.83,0,0,1-2.56-2.87A10.66,10.66,0,0,1,6.66,16a8.76,8.76,0,0,1,1.13-4.14,6.12,6.12,0,0,1,5.56-2.8,11.39,11.39,0,0,1,2.4.27,5.11,5.11,0,0,0,1.05.15,1.87,1.87,0,0,0,.34,0,2.4,2.4,0,0,0,1.54-1,3.82,3.82,0,0,0,.48-1.38v0a3.59,3.59,0,0,0,.08-.35,5,5,0,0,0,.15-.79c0-.28-.16-.41-.94-.67l-.24-.08a16.54,16.54,0,0,0-2.81-.72,18.93,18.93,0,0,0-3-.24,18.22,18.22,0,0,0-2.1.12A11.72,11.72,0,0,0,3.72,7.25,11.66,11.66,0,0,0,.35,13.54a16.4,16.4,0,0,0,.2,7.62,10.15,10.15,0,0,0,4.22,6,12.87,12.87,0,0,0,7,1.81A18.79,18.79,0,0,0,17,28.35a13.34,13.34,0,0,0,2.45-1c.25-.12.26-.19.26-.22a3,3,0,0,0-.14-.88s0,0,0-.06m46.3,0s0,0,0-.06a7.61,7.61,0,0,0-.32-1.05h0a2.3,2.3,0,0,0-1.15-1.17,2.15,2.15,0,0,0-.91-.19,2.82,2.82,0,0,0-.8.12,10.83,10.83,0,0,1-2.09.39c-.4,0-.76,0-1.1,0a6.7,6.7,0,0,1-3.2-.7,5.78,5.78,0,0,1-2.56-2.87A10.63,10.63,0,0,1,53,16a8.54,8.54,0,0,1,1.13-4.14,6.12,6.12,0,0,1,5.56-2.8,11.39,11.39,0,0,1,2.4.27,5.11,5.11,0,0,0,1,.15,1.87,1.87,0,0,0,.34,0,2.32,2.32,0,0,0,1.53-1,3.83,3.83,0,0,0,.49-1.38v0c0-.11,0-.23.08-.35a5,5,0,0,0,.15-.79c0-.28-.17-.41-.94-.67l-.24-.08a16.54,16.54,0,0,0-2.81-.72,19,19,0,0,0-3-.24,18.09,18.09,0,0,0-2.1.12A11.66,11.66,0,0,0,50,7.25a11.66,11.66,0,0,0-3.37,6.29,16.54,16.54,0,0,0,.19,7.62,10.23,10.23,0,0,0,4.22,6,12.91,12.91,0,0,0,7,1.81,18.67,18.67,0,0,0,5.21-.61,14.26,14.26,0,0,0,2.46-.94c.25-.13.25-.2.26-.23a2.71,2.71,0,0,0-.15-.88s0-.07,0-.11M38.88.73A8,8,0,0,1,43.75,5.3,9.35,9.35,0,0,1,43.24,13a25,25,0,0,1-5.72,6.93c-1.08,1-2.23,1.93-3.33,2.85-.84.69-1.7,1.41-2.53,2.13l-1.2,1.05H40.54a3.4,3.4,0,0,1,1.8.33,2.84,2.84,0,0,1,1.41,2.65v2.34l0,0H24.34a1.94,1.94,0,0,1-1-.17c-.08,0-.31-.18-.36-.85s0-1.15,0-1.72c0-.27,0-.54,0-.81v-.19a7.63,7.63,0,0,1,0-1,2.25,2.25,0,0,1,.76-1.36c1.38-1.33,2.82-2.65,4.21-3.93,1.61-1.46,3.27-3,4.85-4.54a31.06,31.06,0,0,0,3.6-4,7.23,7.23,0,0,0,1.47-3.18,3.56,3.56,0,0,0-1.6-3.59,5.38,5.38,0,0,0-2.8-.67l-.69,0A12.53,12.53,0,0,0,30,5.9a15.54,15.54,0,0,0-1.52.6l-.14.07a4.87,4.87,0,0,1-.59.24,2.61,2.61,0,0,1-.69.1A2.54,2.54,0,0,1,24.76,5.5l-.22-.44c-.42-.8-.71-1.45-.38-1.82a3.14,3.14,0,0,1,.72-.5L25,2.65c.42-.24.84-.46,1.26-.67A20.36,20.36,0,0,1,29,.89,18.06,18.06,0,0,1,34.43,0a13.27,13.27,0,0,1,4.45.73"/></g></g></svg>