<?xml version="1.0" encoding="UTF-8" standalone="no"?>
<!DOCTYPE svg PUBLIC "-//W3C//DTD SVG 1.1//EN" "http://www.w3.org/Graphics/SVG/1.1/DTD/svg11.dtd">
<svg width="100%" height="100%" viewBox="0 0 96 31" version="1.1" xmlns="http://www.w3.org/2000/svg" xmlns:xlink="http://www.w3.org/1999/xlink" xml:space="preserve" xmlns:serif="http://www.serif.com/" style="fill-rule:evenodd;clip-rule:evenodd;stroke-linejoin:round;stroke-miterlimit:2;">
    <path id="path14" d="M30,6.4C25.4,6.4 21.9,9.7 21.9,14.4C21.9,19.1 25.4,22.4 30,22.4C32.2,22.4 33.9,21.4 34.6,20.6L34.6,22.2L38.2,22.2L38.2,6.6L34.6,6.6L34.6,8.2C33.9,7.4 32.1,6.4 30,6.4M30.1,19.1C27.4,19.1 25.4,17 25.4,14.4C25.4,11.8 27.5,9.7 30.1,9.7C32.7,9.7 34.7,11.8 34.7,14.4C34.7,17 32.7,19.1 30.1,19.1M61,6.4C58.9,6.4 57.3,7.2 56.3,8.2L56.3,6.6L52.8,6.6L52.8,30.4L56.3,30L56.3,20.5C57.3,21.6 59,22.3 61,22.3C65.8,22.3 69,19.2 69,14.3C69,9.5 65.8,6.4 61,6.4M60.9,19.1C58.1,19.1 56.3,17.1 56.3,14.4C56.3,11.7 58.1,9.7 60.9,9.7C63.7,9.7 65.6,11.7 65.6,14.4C65.5,17.1 63.7,19.1 60.9,19.1M96,6.4C93.8,6.4 92.6,7.2 91.9,8.2L91.9,6.6L88.4,6.6L88.4,22.2L91.9,22.2L91.9,13.6C91.9,11.3 93.5,9.7 95.7,9.7L96,9.7L96,6.4ZM78.4,6.4C73.8,6.4 70.2,10 70.2,14.4C70.2,18.8 73.8,22.4 78.4,22.4C82.2,22.4 85.3,20.3 86.3,17.5L82.1,17.5C81.6,18.5 80.3,19.2 78.4,19.2C76.1,19.2 74.3,17.6 73.9,15.6L86.4,15.6C86.5,15.2 86.5,14.8 86.5,14.4C86.5,10 82.9,6.4 78.4,6.4M74.1,12.5C74.6,10.9 76.3,9.6 78.4,9.6C80.4,9.6 82.2,10.9 82.7,12.5L74.1,12.5ZM45.7,9.5C45,9.5 44.2,9.8 44.2,10.7C44.2,11.7 45.2,12 47.1,12.7C49.7,13.7 51,14.9 51,17.3C51,19.8 48.9,22.4 45.3,22.4C41.7,22.4 39.8,19.7 39.7,17.5L43.1,17.5C43.3,18.5 44.1,19.3 45.3,19.3C46.6,19.3 47.4,18.4 47.4,17.4C47.4,16.7 47.1,15.9 44.9,15.3C42.5,14.7 40.8,13.4 40.8,10.8C40.8,8.4 42.9,6.5 45.6,6.5C48,6.5 49.5,8.2 50.2,9.3L47.3,10.6C46.9,9.8 46.3,9.5 45.7,9.5" style="fill:white;fill-rule:nonzero;"/>
    <path id="path16" d="M11.3,0C4.9,0 0,5 0,11.2C0,17.4 4.9,22.4 11.3,22.4C15.4,22.4 19.2,20.2 20.9,17.1L17.6,15.3C16.3,17.6 14.1,18.9 11.3,18.9C9.3,18.9 7.3,18.1 6,16.7C4.6,15.2 3.8,13.3 3.8,11.3C3.8,9.3 4.6,7.4 6,5.9C7.3,4.5 9.2,3.7 11.3,3.7C13.5,3.7 14.8,4.4 15.7,5.1C16.7,5.8 17.7,6.5 19.4,6.5C22.5,6.5 23.9,4 24.2,2.7L20.7,2C20.7,2.1 20.4,3.1 19.4,3.1C18.9,3.1 18.6,2.9 17.9,2.4C16.6,1.2 14.9,0 11.3,0" style="fill:white;fill-rule:nonzero;"/>
</svg>
