<svg xmlns="http://www.w3.org/2000/svg" viewBox="0 0 550 84.88"><title>Decathlon logo</title><path d="M434.08,444,403.46,495.7a24.59,24.59,0,0,1-19,10.81A22.42,22.42,0,0,1,362.13,484h0v-.1A22,22,0,0,1,384,462.32a27.75,27.75,0,0,1,18,8,25.79,25.79,0,0,1,5.33,5.63l11.21-18.8a34.44,34.44,0,0,0-5.48-4.68,45.25,45.25,0,0,0-28.71-10.36,43,43,0,0,0-35.2,16.94,38.41,38.41,0,0,0-8.75,25.14,42,42,0,0,0,11.16,28.71,44.43,44.43,0,0,0,57.22,6.54,46.16,46.16,0,0,0,7.79-6.34H436v11.77h20.11V444Zm2,52.14H425.33L436,477.86Z" transform="translate(-222 -442.1)"/><polygon points="253.61 83.22 253.61 21.03 237.87 21.03 237.87 2.22 290.46 2.22 290.46 21.03 274.37 21.03 274.37 83.22 253.61 83.22 253.61 83.22"/><polygon points="336.16 52.25 314.9 52.25 314.9 83.22 294.13 83.22 294.13 2.22 314.9 2.22 314.9 32.99 336.16 32.99 336.16 2.22 357.03 2.22 357.03 83.22 336.16 83.22 336.16 52.25 336.16 52.25"/><path d="M751.34,444.32v45.25l-31.12-45.25h-18.7v27.35a41.83,41.83,0,0,0-11.06-16.84,45.25,45.25,0,0,0-61.19,0,39.67,39.67,0,0,0-12.92,29.31A41.83,41.83,0,0,0,623,507.57H607.14V444.32H586.52v81h44.85v-8.55A43.34,43.34,0,0,0,660,526.83a44.14,44.14,0,0,0,31.27-12.67,40.83,40.83,0,0,0,10.06-16.44v27.6h20.71V480.07l31.63,45.25H772v-81ZM660,506.77a22.68,22.68,0,0,1-22.32-22.58A22.22,22.22,0,1,1,660,506.77Z" transform="translate(-222 -442.1)"/><path d="M340.76,461.87V444H294.55V477.3A37.71,37.71,0,0,0,282.74,454c-8.8-8-18.25-9.7-31.73-9.7H222v81h31.88c11.92,0,20.11-1.61,29-10.06a38.31,38.31,0,0,0,11.66-22.63v32.18h46.21V507.47H315V492.39h22.37V475H315V461.87Zm-89.65,45.7h-8.35v-45.8H251c15.08,0,23.48,8.2,23.48,22.78C274.49,500.48,267,507.57,251.11,507.57Z" transform="translate(-222 -442.1)"/></svg>