<?xml version="1.0" encoding="UTF-8"?>
<svg id="Layer_2" data-name="Layer 2" xmlns="http://www.w3.org/2000/svg" viewBox="0 0 825.02 118.09">
  <defs>
    <style>
      .cls-1 {
        fill: #fff;
        stroke-width: 0px;
      }
    </style>
  </defs>
  <g id="clients">
    <g>
      <polygon class="cls-1" points="23.22 22.75 23.22 49.28 71.55 49.28 71.55 69.19 23.22 69.19 23.22 118 0 118 0 2.84 78.66 2.84 78.66 22.75 23.22 22.75"/>
      <polygon class="cls-1" points="92.88 117.53 92.88 2.84 116.09 2.84 116.09 98.09 173.43 98.09 173.43 118 92.88 118 92.88 117.53"/>
      <path class="cls-1" d="M253.98,2.85h-24.16l-45.01,115.15h25.11l9.95-27.01h45.49l10.43,27.01h25.11L253.98,2.85ZM226.97,72.51l15.16-42.65,15.16,42.65h-30.32Z"/>
      <polygon class="cls-1" points="335 42.65 335 118 312.26 118 312.26 2.84 335.95 2.84 382.86 79.62 382.86 2.84 405.6 2.84 405.6 118 380.97 118 335 42.65"/>
      <polygon class="cls-1" points="447.3 42.65 447.3 118 424.56 118 424.56 2.84 448.25 2.84 495.16 79.62 495.16 2.84 518.38 2.84 518.38 118 493.74 118 447.3 42.65"/>
      <polygon class="cls-1" points="624.04 98.57 624.04 118 536.86 118 536.86 2.84 621.67 2.84 621.67 22.75 560.07 22.75 560.07 47.39 617.41 47.39 617.41 67.29 560.07 67.29 560.07 98.57 624.04 98.57"/>
      <polygon class="cls-1" points="643.47 117.53 643.47 2.84 666.22 2.84 666.22 98.09 724.5 98.09 724.5 118 643.47 118 643.47 117.53"/>
      <path class="cls-1" d="M791.31,24.17c-4.26-2.85-9.47-4.27-14.22-3.79-5.68-.47-11.37,1.42-15.63,4.27-2.37,1.89-3.79,4.26-3.79,7.11s.95,5.21,3.32,6.63c2.84,2.37,9.95,4.74,21.8,7.58,8.53,1.89,17.06,4.26,25.59,8.05,5.22,2.84,9.48,6.64,12.32,11.37,2.84,5.69,4.74,11.85,4.26,18.01,0,6.63-1.89,12.79-5.21,18.01-3.79,5.69-9,9.95-15.16,12.32-8.05,3.32-16.59,4.74-25.11,4.27-14.22,0-26.06-3.32-33.64-9.95-8.06-7.58-13.27-18.01-13.74-29.38l22.74-2.37c.47,6.16,3.32,11.85,8.06,16.11,4.73,3.79,10.89,5.69,16.58,5.22,6.16.47,11.84-1.43,16.59-4.74,3.32-2.37,5.68-6.63,5.68-10.9,0-2.37-.94-4.74-2.37-6.63-2.37-2.37-5.21-3.79-8.06-4.74-2.84-.95-8.53-2.37-18-4.74-9.48-1.42-18.48-5.21-26.53-10.9-6.63-5.69-10.43-14.69-10.43-23.7,0-5.68,1.42-11.37,4.74-16.11,3.79-4.74,8.53-9,13.74-11.37,7.11-2.84,14.69-3.79,22.75-3.79,14.21,0,25.59,2.85,32.69,9.48,7.59,6.16,11.38,15.64,11.38,25.59l-23.7.95c-.94-4.26-2.84-9-6.63-11.84"/>
    </g>
  </g>
</svg>