<?xml version="1.0" encoding="UTF-8"?>
<svg id="Layer_2" data-name="Layer 2" xmlns="http://www.w3.org/2000/svg" viewBox="0 0 826.39 139.58">
  <defs>
    <style>
      .cls-1 {
        fill: #f9f9f9;
        stroke-width: 0px;
      }

      .cls-2 {
        fill: none;
        stroke: #2c3439;
        stroke-linecap: round;
        stroke-linejoin: round;
        stroke-width: 1.38px;
      }
    </style>
  </defs>
  <g id="clients">
    <g>
      <path class="cls-1" d="M825.71,2.2h-176.42l127.33,21.59-51.84,79.62h-4.27l-7.29,7.15-7.56-7.15h-2.06l-7.29,7.29-7.29-7.29h-2.47l-7.29,7.29-7.56-7.29h-22.41l29.57,11.55,7.97-3.85,4.4,8.66,2.2.82,9.08-4.54,4.81,10.04,1.93.69-6.74,10.45L825.71,2.2ZM592.36,83.47l-6.6,12.38v41.53h-21.18V2.34h21.18v58.85l27.77-58.85h21.18l-29.43,60.23,29.43,74.81h-21.73l-20.62-53.91ZM508.49,21.59v41.39h8.25c7.84,0,12.65-3.44,12.65-14.3v-13.2c0-9.62-3.3-13.89-10.72-13.89h-10.18ZM531.59,137.38c-1.1-3.44-1.93-5.64-1.93-16.64v-21.18c0-12.51-4.27-17.19-13.89-17.19h-7.29v55h-21.18V2.34h31.9c22,0,31.35,10.18,31.35,31.08v10.59c0,13.89-4.4,22.96-13.89,27.36,10.59,4.4,14.02,14.71,14.02,28.74v20.9c0,6.6.14,11.41,2.34,16.36h-21.45ZM429.15,94.48h20.49l-10.18-68.35-10.31,68.35ZM477.41,137.38h-21.31l-3.71-24.61h-25.99l-3.71,24.61h-19.39L424.89,2.34h30.94c.14,0,21.59,135.04,21.59,135.04ZM348.02,137.38h-21.17V2.34h21.17v57.89h24.07V2.34h21.59v135.04h-21.59v-57.9h-24.07v57.9ZM283.26.69c20.62,0,31.21,12.38,31.21,33.97v4.26h-19.94v-5.64c0-9.63-3.85-13.34-10.59-13.34s-10.59,3.71-10.59,13.34c0,27.78,41.39,33,41.39,71.51,0,21.59-10.73,33.96-31.62,33.96s-31.49-12.38-31.49-33.96v-8.25h20.07v9.76c0,9.63,4.26,13.07,11,13.07s11-3.44,11-13.07c0-27.78-41.39-33-41.39-71.51-.14-21.73,10.31-34.11,30.94-34.11M195.53,98.19L209.97,2.34h29.43v135.04h-19.94V40.57l-14.57,96.81h-20.08l-15.81-95.43v95.43h-18.43V2.34h29.43l15.54,95.85ZM94.33,92.55L67.65,2.34h22.14l16.23,61.6L122.24,2.34h20.21l-26.95,90.21v44.69h-21.18v-44.69ZM34.1,62.16h29.7v42.77c0,21.59-10.73,33.97-31.63,33.97S.69,126.52.69,104.93V34.66C.69,13.07,11.41.69,32.17.69s31.63,12.38,31.63,33.97v13.06h-20.08v-14.44c0-9.63-4.26-13.34-11-13.34s-11,3.71-11,13.34v73.02c0,9.63,4.26,13.07,11,13.07s11-3.44,11-13.07v-24.89h-9.62v-19.25Z"/>
      <path class="cls-2" d="M825.71,2.2h-176.42l127.33,21.59-51.84,79.62h-4.27l-7.29,7.15-7.56-7.15h-2.06l-7.29,7.29-7.29-7.29h-2.47l-7.29,7.29-7.56-7.29h-22.41l29.57,11.55,7.97-3.85,4.4,8.66,2.2.82,9.08-4.54,4.81,10.04,1.93.69-6.74,10.45L825.71,2.2ZM592.36,83.47l-6.6,12.38v41.53h-21.18V2.34h21.18v58.85l27.77-58.85h21.18l-29.43,60.23,29.43,74.81h-21.73l-20.62-53.91ZM508.49,21.59v41.39h8.25c7.84,0,12.65-3.44,12.65-14.3v-13.2c0-9.62-3.3-13.89-10.72-13.89h-10.18ZM531.59,137.38c-1.1-3.44-1.93-5.64-1.93-16.64v-21.18c0-12.51-4.27-17.19-13.89-17.19h-7.29v55h-21.18V2.34h31.9c22,0,31.35,10.18,31.35,31.08v10.59c0,13.89-4.4,22.96-13.89,27.36,10.59,4.4,14.02,14.71,14.02,28.74v20.9c0,6.6.14,11.41,2.34,16.36h-21.45ZM429.15,94.48h20.49l-10.18-68.35-10.31,68.35ZM477.41,137.38h-21.31l-3.71-24.61h-25.99l-3.71,24.61h-19.39L424.89,2.34h30.94c.14,0,21.59,135.04,21.59,135.04ZM348.02,137.38h-21.17V2.34h21.17v57.89h24.07V2.34h21.59v135.04h-21.59v-57.9h-24.07v57.9ZM283.26.69c20.62,0,31.21,12.38,31.21,33.97v4.26h-19.94v-5.64c0-9.63-3.85-13.34-10.59-13.34s-10.59,3.71-10.59,13.34c0,27.78,41.39,33,41.39,71.51,0,21.59-10.73,33.96-31.62,33.96s-31.49-12.38-31.49-33.96v-8.25h20.07v9.76c0,9.63,4.26,13.07,11,13.07s11-3.44,11-13.07c0-27.78-41.39-33-41.39-71.51-.14-21.73,10.31-34.11,30.94-34.11M195.53,98.19L209.97,2.34h29.43v135.04h-19.94V40.57l-14.57,96.81h-20.08l-15.81-95.43v95.43h-18.43V2.34h29.43l15.54,95.85ZM94.33,92.55L67.65,2.34h22.14l16.23,61.6L122.24,2.34h20.21l-26.95,90.21v44.69h-21.18v-44.69ZM34.1,62.16h29.7v42.77c0,21.59-10.73,33.97-31.63,33.97S.69,126.52.69,104.93V34.66C.69,13.07,11.41.69,32.17.69s31.63,12.38,31.63,33.97v13.06h-20.08v-14.44c0-9.63-4.26-13.34-11-13.34s-11,3.71-11,13.34v73.02c0,9.63,4.26,13.07,11,13.07s11-3.44,11-13.07v-24.89h-9.62v-19.25Z"/>
    </g>
  </g>
</svg>