<?xml version="1.0" encoding="UTF-8"?>
<svg id="Layer_2" data-name="Layer 2" xmlns="http://www.w3.org/2000/svg" viewBox="0 0 576.7 369.75">
  <defs>
    <style>
      .cls-1 {
        fill: #fff;
        stroke-width: 0px;
      }
    </style>
  </defs>
  <g id="clients">
    <g>
      <path class="cls-1" d="M48.04,3.9C21.37,4.19-.19,26.01,0,52.69c.19,26.87,22.13,48.37,48.77,48.19,26.79-.24,48.17-22.17,47.98-48.99-.23-26.59-21.91-48.11-48.71-47.98M57.91,69.02c0,5.29-4.02,9.49-9.33,9.55-5.06,0-9.42-4.15-9.55-9.37l-.23-33.51c0-5.24,4.25-9.37,9.36-9.48,5.24,0,9.39,4.13,9.42,9.37l.32,33.45Z"/>
      <path class="cls-1" d="M175.35,73.59l-.27-28.75c-.11-7.88-8.89-14.39-19.6-14.39-7.32.14-13.62,2.94-16.93,7.18v-5.77l-33.02.22.13,16.4c2.93,0,5.48,2.19,5.53,5.24l.14,20.47c.05,2.97-2.52,5.35-5.42,5.42l.13,14.48,38.34-.3-.11-14.49c-2.99,0-5.38-2.45-5.42-5.73l-.08-17.06c-.11-2.8,2.25-5.36,5.27-5.36,3.15-.08,5.52,2.56,5.52,5.24l.43,37.39,30.93-.31-.13-14.42c-2.9,0-5.45-2.43-5.45-5.49"/>
      <path class="cls-1" d="M406.18,70.05l-.39-40.31-32.99.29.13,14.44c2.93,0,5.48,2.49,5.48,5.42l.11,17.24c.04,2.98-2.44,5.24-5.45,5.29-3.1,0-5.45-2.24-5.53-5.29l-.24-37.04-31.19.25.16,14.44c2.97-.06,5.43,2.25,5.43,5.18l.4,28.75c0,8.1,8.89,14.62,19.82,14.5,7.07-.08,13.31-2.8,16.82-7.14v5.92l33.15-.24-.19-16.32c-3.15,0-5.46-2.5-5.53-5.37"/>
      <path class="cls-1" d="M490.45,72.25l-12.41-16.09,9.39-9c2.67-.87,5.56-1.53,5.56-5.61l-.11-13.81-37.16.29.16,14.44c0,4.08,3.64,4.08,3.64,4.08l-7.5,7.07-.43-53.62-32.62.25.09,15.21c3.05,0,5.5,2.57,5.5,5.5l.35,50.67c.06,3.05-2.25,5.5-5.38,5.55l.15,14.44,38.25-.24v-14.5c-3.22,0-5.72-2.32-5.82-5.47v-1.35l18.71,21.21,26.34-.26-.16-15.24c-3.2,0-4.35-1.14-6.56-3.51"/>
      <path class="cls-1" d="M263.34,23.57l-.06-12.5-27.3.26.16,12.43c.03,4.02-3.05,7.32-6.98,7.43l.13,15.84c3.89-.06,7.07,3.05,7.07,6.88l.36,39.17,34.24-.24-.11-15.85c-3.91,0-7.07-3.15-7.16-6.93l-.11-16.32c-.08-3.91,3.09-7.08,6.99-7.08l-.11-15.84c-3.91.07-7.12-3.23-7.12-7.25"/>
      <path class="cls-1" d="M312.14,52.51s-12.99-2.56-10.02-7.32c2.83-4.13,10.49-1.09,14.5,3.41l12.83-.06-.14-17.95-12.07.11c-1.8,0-2.77,1.34-2.77,1.34-4.31-1.16-9.16-2.25-14.89-2.19-12.3.11-21.8,9.49-21.71,21.07.1,11.7,8.56,19.32,21.47,21.45,0,0,9.98,1.46,8.89,5.25-1.16,3.58-13.54,3.28-18.83-4.69l-10.66.05.2,19.79,12.03-.11s1.06-2.38,4.47-1.27c4.64,1.57,10.35,2.01,16.01,1.94,11.9-.11,21.64-9.26,21.5-20.58-.11-11.34-7.19-17.99-20.81-20.23"/>
      <path class="cls-1" d="M568.17,66.87s.29-7.54.2-20.94c-.05-13.65-16.95-22.85-35.92-22.17-21.96.59-29.09,5.98-29.09,5.98l5.37,15.1s24.13-6.95,28.38.11c0,0,.61.61-1.66.98-2.86.61-4.07-.37-10.52-.3-14.84.11-27.06,10.79-26.99,23.33.13,12.41,12.3,22.53,26.69,22.41,5.59,0,10.46-1.34,14.79-3.78,4.45,1.47,5.77,3.04,5.77,3.04l30.53-.23-.06-13.65c-8.2-2.26-7.5-9.89-7.5-9.89M535.95,74.92c-3.36,0-6.03-3.34-6.14-7.19,0-4.21,2.67-7.32,6.03-7.38,3.33,0,5.91,3.05,5.91,7.25,0,3.84-2.42,7.19-5.8,7.32"/>
      <path class="cls-1" d="M220.52,73.22l-.36-42.03-32.89.3.2,15.16c3.08,0,5.4,2.57,5.5,5.48l.19,21.32c0,3.1-2.33,5.48-5.5,5.48l.11,14.49,38.15-.23-.09-14.5c-2.91,0-5.31-2.32-5.31-5.49"/>
      <polygon class="cls-1" points="219.9 4.93 192.37 5.12 192.53 25.71 220.16 25.51 219.9 4.93"/>
      <path class="cls-1" d="M109.78,203.64c-20.26,39.17.24,49.77.24,49.77,17.8-8.78,19.15-52.63,19.15-52.63l-19.39,2.86Z"/>
      <path class="cls-1" d="M363.41,187.12c-3.28,9.48-.96,13.04-.96,13.04,0,0,7.91-.74,13.25-2.67,0,0,3.25-7.08,1.01-14.88-2.48-8.41-9.6-5.24-13.3,4.5"/>
      <path class="cls-1" d="M273.03,254.25c1.16,2.86,11.32,8.71,17.97,3.71,8.46-6.27-2.06-17.48-2.06-17.48l-15.91,13.76Z"/>
      <path class="cls-1" d="M3.39,104.88l1.46,187.07c.19,25.88,21.08,46.37,46.71,46.19l172.75-1.35s22.18-1.96,67.18,32.97c44.15-35.58,66.31-34.06,66.31-34.06l172.75-1.35c25.55-.17,46.39-21.01,46.15-46.84l-1.45-187.12L3.39,104.88ZM187.33,260.76c-24.8,32.82-55.11,35.26-74.73,28.46-24.39-8.67-43.88-35.45-33.12-65.31,9.84-28.01,38.59-36.36,38.59-36.36-2.06,2.98-4.62,8.15-4.62,8.15l51.77-9.68s-4.87,26.67-9.19,43.49c-4.57,16.81-35.34,32.51-35.34,32.51,16.29,11.39,36.74,6.4,36.74,6.4l19.87-94.4c-10.18,1.34-32.28,2.73-53.02,3.72-20.21,1.08-38.62,9.81-38.62,9.81,6.34-33.09,34.15-37.34,68.75-38.82,36.53-1.69,66.61-10.09,66.61-10.09-8.67,28.62-34.1,34.09-34.1,34.09l-18.3,93.32c10.61-2.3,18.71-5.29,18.71-5.29M220.9,272.15c-16.2,5.92-17.66-6.2-16.95-10.48.93-4.36,3.41-20.58,5.31-30.57,2.01-9.02-1.27-11.95-1.27-11.95-1.85-1.75,3.39-3.76,5.32-6.56,3.93-5.24,5.69-8.41,12.32-7.38,6.91,1.17,10.23,6.27,9.07,14.31-.89,8.04-4.66,24.86-5.92,32.54-1.32,7.67,11.38,2.61,11.38,2.61,0,0-5.46,12.38-19.26,17.48M228.2,195.47s-12.06-7.12-15.85-8.83c0,0,7.4-8.1,16.18-12.6,0,0,10.48,4.31,17.78,8.59l-18.1,12.85ZM321.26,199.84c-4.08,7.62-9.5,34.66-10.42,40.21-.9,5.42,1.93,31.92-23.31,40.28-25.4,8.44-36.08-5.74-36.08-5.74l17.7-16.62c-10.24-8.7-15.52-27.11-7.8-42.84,7.8-15.82,27.75-24.23,30.91-25.56,3.06-1.29,6.11-.07,6.11-.07,15.58,4.68,16.62,1.03,21.31,1.4,4.53.55,5.83,1.09,1.57,8.94M400.13,199.42l-39.91,9.39s-3.78,9.55,1.09,13.57c5.37,4.34,12.99,3.49,28.38-3.83,0,0-5.81,14.06-23.5,19.43-17.8,5.48-27.03-3.47-28.08-15.77-1.01-12.11-.3-33.69,16.77-45.92,17.17-12.38,33.49-7.69,37.2-5.61,3.71,2.2,12.99,7.19,8.04,28.75M490.32,168.23c-6.53,4.39-18.62-.48-25.5-2.8-6.89-2.19-8.94,1.11-13.47,4.28-4.52,3.08-4.28,5.96-4.28,5.96,0,0-2.67,13.27-3.52,18.7-.79,5.66,3.52,6.4,6.88,6.4s15-4.02,15-4.02c-18.74,25.21-32.6,29.42-42.02,26.54-9.44-2.78-9.71-11.08-8.75-17.17.87-6.09,3.57-19.97,5.27-26.79,1.7-6.89-2.03-9.4-2.03-9.4-.06-1.58,1.79-3.94,3.83-5.35,2.33-1.58,8.04-7.43,8.04-7.43,9.32-.9,17.06,6.84,17.06,6.84,3.3-.63,20.23-12.62,22.93-14.4,2.78-1.89,3.91-.78,8.28.92,4.57,1.64,10.05,1.9,16.59,2.2,6.49-.06,13.13.66,13.13.66-1.3,3.53-11.34,10.11-17.44,14.85"/>
      <path class="cls-1" d="M297.88,208.2c-2.32,0-8.67-3.18-11.97-.85-3.39,2.55-6.17,7.67-7.41,10.84-1.82,4.68-1.79,15.47,6.5,18.88,5.87,2.21,3.88-6.57,5.58-11.38,1.93-5,4.99-9.81,8.38-12.36,3.06-2.38,1.24-5.11-1.07-5.11"/>
    </g>
  </g>
</svg>