<?xml version="1.0" encoding="UTF-8" standalone="no"?>
<!DOCTYPE svg PUBLIC "-//W3C//DTD SVG 1.1//EN" "http://www.w3.org/Graphics/SVG/1.1/DTD/svg11.dtd">
<svg width="100%" height="100%" viewBox="0 0 482 90" version="1.1" xmlns="http://www.w3.org/2000/svg" xmlns:xlink="http://www.w3.org/1999/xlink" xml:space="preserve" xmlns:serif="http://www.serif.com/" style="fill-rule:evenodd;clip-rule:evenodd;stroke-linejoin:round;stroke-miterlimit:2;">
    <g transform="matrix(1,0,0,1,-59.2,-180.46)">
        <g>
            <path d="M82.1,234.3C81.9,231.8 80.6,229.8 78.6,228.7C77.2,228 75.6,227.6 73.7,227.8C73.2,227.9 72.6,227.9 71.8,228L73.1,243.1C73.4,243.1 74.6,243 75.2,242.8C77,242.5 78.6,241.8 79.7,240.9C80.5,240.2 81.3,239.3 81.7,238.2C82.1,237 82.2,235.8 82.1,234.3ZM59.2,218.9C60.9,218.5 64.9,218 67.8,217.7C69.9,217.5 72.6,217.3 75,217.4C77.9,217.5 81.3,218 84.2,219.3C89,221.5 93.2,225.8 93.8,233.1C94.1,236.6 93.5,239.7 92.4,242.3C91,245.4 88.9,247.8 86.4,249.3C84.7,250.4 82.8,251.2 80.8,251.9C78.5,252.6 76.1,253.1 73.7,253.3L75.1,269.2L63.6,270.2L59.2,218.9Z" style="fill:white;fill-rule:nonzero;"/>
            <path d="M501.4,196.5C501.1,192.4 498.4,190.3 494.4,190.6C493.3,190.7 492.7,190.8 492.1,190.9L493.3,204.1C493.8,204.1 494.4,204.1 495,204C496.7,203.9 498.2,203.2 499.3,202.3C500.3,201.4 501.6,199.4 501.4,196.5ZM479.6,182.1C480.7,181.9 482.6,181.6 484.3,181.4C485.8,181.2 488.9,180.9 490.7,180.7C494.9,180.3 498.3,180.4 501.3,181C505.9,181.8 512.1,185 513,194.5C513.5,200.2 511.1,204.5 509.2,206.4C508.1,207.5 506.9,208.6 506.1,209.1L506.1,209.3C506.6,209.9 522.8,230.2 522.8,230.2L509,231.4C509,231.4 499.9,219.1 495.1,212.6L493.9,212.7L495.7,232.5L484.1,233.5L479.6,182.1ZM443.7,185.1L471.2,182.7L472.1,193L456.8,194.3L457.7,204.4L471.2,203.2L472.1,213.4L458.6,214.6L459.5,225.2L475,223.8L475.9,234.1L448.2,236.5L443.7,185.1ZM428.4,239.4L426.8,239.5L409,210.2L396.4,242.1L394.8,242.2L374,191.2L386.6,190.1L396,213.8L406.5,188.6L408.2,188.4L423,211.1L427.9,186.3L439.4,185.3L428.4,239.4ZM362.3,218.1C361.6,209.6 355,203.5 346.6,204.2C338,205 332.4,212 333.1,220.8C333.9,229.4 340.4,235.5 349.2,234.7C358.1,234 363.1,226.7 362.3,218.1ZM374.8,216.8C376.1,232 365.7,244.6 350.1,246C334.8,247.3 322,236.7 320.7,221.9C319.4,207 330.2,194.4 345.9,193C361.4,191.6 373.5,201.9 374.8,216.8ZM303.2,215C303,212.5 301.6,210.4 299.6,209.4C298.2,208.7 296.6,208.3 294.7,208.5C294.2,208.5 293.5,208.6 292.7,208.7L294,223.7C294.3,223.7 295.6,223.6 296.1,223.5C297.9,223.2 299.5,222.6 300.6,221.7C301.4,221 302.2,220.1 302.6,218.9C303.2,217.7 303.4,216.5 303.2,215ZM280.4,199.6C282.1,199.2 286.1,198.7 289,198.5C291.1,198.3 293.8,198.2 296.3,198.2C299.1,198.3 302.5,198.7 305.5,200.1C310.3,202.3 314.5,206.6 315.1,213.9C315.4,217.4 314.8,220.5 313.7,223.1C312.3,226.1 310.2,228.5 307.7,230.1C306,231.2 304.2,232 302.1,232.6C299.8,233.3 297.4,233.8 295,234L296.4,249.9L284.8,250.9L280.4,199.6ZM262.4,230.9L264.3,252.8L252.1,253.9L250.2,232.7L230.2,203.9L243.9,202.7L255.2,219.8L263.7,201L276.7,199.9L262.4,230.9ZM220.8,229.8C220.4,225.1 218.4,221 214.9,218.6C212.5,217 209.3,216.2 205.3,216.6C204,216.7 202.8,216.9 201.9,217.1L204.5,246.6C204.5,246.7 204.6,246.7 204.6,246.7C205.6,246.7 206.6,246.7 207.6,246.6C210.6,246.3 213.4,245.2 215.7,243.3C219.1,240.5 221.3,236 220.8,229.8ZM233.4,228.5C234.3,238.3 230.7,246.4 223.7,252C219.4,255.5 213.5,257.4 206.6,258C203.3,258.3 200.1,258.5 198,258.6C196.6,258.7 194.6,258.7 193.2,258.7L188.8,207.7C193.5,206.9 200.4,206 202.9,205.8C210.8,205.1 216.6,206.2 221.2,208.4C229.5,212.7 232.8,220.9 233.4,228.5ZM171.6,234.1C171.2,229.4 169.2,225.3 165.7,223C163.3,221.4 160.1,220.6 156.1,221C154.9,221.1 153.6,221.3 152.8,221.5L155.4,250.9C155.4,251 155.5,251 155.5,251C156.5,251 157.5,251 158.5,250.9C161.5,250.6 164.3,249.5 166.6,247.6C170,244.8 172.2,240.3 171.6,234.1ZM184.3,232.7C185.2,242.6 181.6,250.7 174.6,256.2C170.3,259.6 164.4,261.6 157.5,262.2C154.2,262.5 151,262.7 148.9,262.8C147.5,262.9 145.5,262.9 144.1,262.9L139.6,211.9C140.9,211.6 142.6,211.3 145.6,210.9C148.7,210.5 151.2,210.2 153.7,210C161.6,209.3 167.4,210.4 172,212.7C180.4,217 183.6,225.1 184.3,232.7ZM117.7,248.2L112.6,237L109.3,248.9L117.7,248.2ZM106.5,259L104.2,266.7L91.6,267.8L110.2,213.3L111.9,213.1L139.3,263.6L125.5,264.8L122,257.7L106.5,259Z" style="fill:white;fill-rule:nonzero;"/>
        </g>
        <path d="M541,222.7C541,226.7 537.8,229.9 533.8,229.9C529.8,229.9 526.5,226.6 526.5,222.7C526.5,218.7 529.8,215.5 533.8,215.5C537.9,215.4 541,218.7 541,222.7" style="fill:white;fill-rule:nonzero;"/>
    </g>
</svg>
