<?xml version="1.0" encoding="UTF-8" standalone="no"?>
<!DOCTYPE svg PUBLIC "-//W3C//DTD SVG 1.1//EN" "http://www.w3.org/Graphics/SVG/1.1/DTD/svg11.dtd">
<svg width="100%" height="100%" viewBox="0 0 601 196" version="1.1" xmlns="http://www.w3.org/2000/svg" xmlns:xlink="http://www.w3.org/1999/xlink" xml:space="preserve" xmlns:serif="http://www.serif.com/" style="fill-rule:evenodd;clip-rule:evenodd;stroke-linejoin:round;stroke-miterlimit:2;">
    <g transform="matrix(1,0,0,1,-40.8,-228.5)">
        <path d="M158.3,305.9C149.2,279.5 123.1,271 105.8,271.6C84.6,272.2 73,289.2 72.4,289.2L72.4,279.5C72.4,277.4 72.4,274.6 68.8,274.6L46,274.9C43,274.9 40.8,275.5 40.8,279.1L40.8,418.1C40.8,421.4 42.3,423.6 46.9,423.6L69.7,423.6C72.7,423.6 75.8,421.2 75.5,418.1L75.5,374.7C75.5,373.8 75.5,373.5 76.7,374.7C78.8,377.7 87,388.4 109.8,388.7C155.9,389.6 169.2,336.8 158.3,305.9ZM127.7,332C127.1,343.5 120.4,357.8 101.3,358.4C80.7,359 73.4,346 72.8,330.5C71.9,313.8 82.8,302.3 100.1,302C120.1,302 128,317.2 127.4,332L127.7,332ZM355.8,271.9C346.7,271.9 337.6,271.6 329.7,277.1C324.5,280.4 320.6,285 317.6,290.5C317,291.7 316.4,293.5 316.4,291.7L316.4,279.6C316.1,276.6 314,274.4 310,274.4L286.6,274.4C283,274.4 281.7,277.7 281.7,279.9L281.7,379.4C281.7,385.5 284.7,385.8 288.1,385.8L310,385.8C313.6,385.8 316.1,384.9 316.1,379.7L316.1,342.7C316.1,334.5 315.8,325.7 318.5,317.8C320.3,311.7 324.6,307.2 330,304.4C335.5,302 341.2,301.4 347,301.4C351.9,302 360.7,304.4 360.7,296.5L360.7,277C360.7,274.6 358.6,271.8 355.8,272.1L355.8,271.9ZM488.4,329.2C488.1,296.1 467.8,280 455,275.5C438.6,269.4 422.5,270 409.2,279.1C405.3,281.9 401.8,285.3 398.9,289.1L398.3,289.1L398.3,278.8C398.3,276.4 395.9,274.2 393.4,274.2L372.2,274.2C368.9,274.2 367,277.2 367,280.3L367,418.4C367,419.9 367,423.6 372.2,423.9L395.6,423.9C398,423.9 401.4,423.3 401.4,417.8L401.4,374.4C401.7,373.2 402.6,374.4 403.2,375.6C408.1,382.6 420.2,388 432.6,388.6C449.9,389.5 462.9,383.4 473.3,371.9C483.1,359.8 488.3,344.7 488.2,329.1L488.4,329.1L488.4,329.2ZM453.5,331.4C453.8,346.6 442.3,358.7 427.1,358.7C404.3,358.1 398.9,341.4 398.6,332C398.6,310.5 412.3,302.9 423.8,302C445.6,300.7 453.2,316.2 453.5,331.4ZM640.8,331.1C643.2,288.6 607.4,255.2 556.4,279.5C524.5,294.4 517.6,340.2 538.8,366.3C564.6,398.5 613.1,393.3 632.6,370.5C635.3,367.5 633.5,365 630.8,362.9L615.3,352C613.2,350.5 610.1,351.1 608.6,352.9C605.6,356.2 598,363.2 586.8,362.9C572.5,362.9 563.7,353.8 561,341.4L635.6,340.8C640.2,340.5 639.8,336.9 640.5,330.8L640.8,331.1ZM561.3,317.4C562.2,304 573.4,296.2 585.9,296.2C598.6,296.5 605.9,305.3 607.1,317.4L561.3,317.4ZM261.8,274.6L241.8,274.6C236.6,274.6 234.5,278.5 234.5,282.8C234.5,282.8 235.4,329.5 233.9,338.9C232.7,348.6 228.7,357.4 214.5,358.3C198.4,358.9 196.9,343.1 196.3,340.1L196.3,281.5C196.3,277.9 193.6,274.2 189.3,274.2L164.7,274.2C162.6,274.2 161.7,276 161.4,277.2L161.7,282.4C162.3,284.2 165.9,289.1 167.8,292.4C176.7,310.3 178.8,330.8 173.6,350.1C170.9,359.8 169,362.5 167.5,366.2C165.4,371.1 174.2,381.4 182.4,384.4C193.6,388.6 220.6,393.5 235.5,370.1L235.5,378.3C235.5,381.3 237.9,385.3 243.1,385.3L261.9,385.3C265.5,385.3 268.6,382.3 268.6,378L268.6,281.8C268.4,278 265.4,274.6 261.8,274.6ZM514.8,228.5L492,228.5C486.8,228.5 485.3,228.5 485.3,233.4L485.3,268C485.3,273.2 484.4,280.4 487.1,284.7C492.3,292.9 500.5,306.5 501.4,320.8C502,334.5 500.5,348.1 494.7,360.9C491.7,367 487.1,371.8 485.6,378.2C485,380.6 484.7,383 484.7,385.5C484.7,387.3 485.6,390.7 489.6,390.7L513,390.7C515.7,390.7 519.1,390.1 519.1,385.5L519.1,233.7C519.1,230.6 517.6,228.5 514.8,228.5Z" style="fill:white;fill-rule:nonzero;"/>
    </g>
</svg>
