<svg version="1.1" id="Layer_1" xmlns:x="ns_extend;" xmlns:i="ns_ai;" xmlns:graph="ns_graphs;" xmlns="http://www.w3.org/2000/svg" xmlns:xlink="http://www.w3.org/1999/xlink" x="0px" y="0px" viewBox="0 0 190.5 50" style="enable-background:new 0 0 190.5 50;" xml:space="preserve">
 <metadata>
  <sfw xmlns="ns_sfw;">
   <slices>
   </slices>
   <sliceSourceBounds bottomLeftOrigin="true" height="50" width="190.5" x="-107.5" y="-213.2">
   </sliceSourceBounds>
  </sfw>
 </metadata>
 <g>
  <path d="M175,12c-3.6-0.1-7.2,1-10,3.3V0h-8.8v49.2h8.8V29.5c0-6.1,3.5-9.1,8.4-9.1c4.9,0,8.4,3,8.4,9.1v19.7h8.8V28.8
		C190.5,17.6,184.1,12,175,12z M140.3,32.9c0,5.9-3.4,8.6-8.1,8.6s-8.1-2.7-8.1-8.6V12.7h-8.8v20.8c0,10.5,7,16.5,16.9,16.5
		s16.8-6,16.8-16.5V12.7h-8.8V32.9z M93.5,12c-3.6-0.1-7.2,1-10,3.3V0h-8.8v49.2h8.8V29.5c0-6.1,3.5-9.1,8.4-9.1s8.4,3,8.4,9.1v19.7
		h8.8V28.8C109.1,17.6,102.6,12,93.5,12z M58,41.5c-6.7,0-11.3-4.4-11.3-10.5S51.3,20.4,58,20.4c2.9,0,5.8,0.8,8.2,2.5l3.4-7.5
		c-3.6-2.2-7.7-3.4-11.9-3.4C45.4,12,37.6,19.8,37.6,31s7.9,19,20.2,19c4.4,0,8.8-1.3,12.5-3.7l-3.5-7.6
		C64.2,40.5,61.2,41.5,58,41.5z M9.1,25.4c0-3.7,3.9-5.7,8.9-5.7c3.9,0,7.7,0.9,11.1,2.7l3.3-7.1C28,13,23,11.8,18,12
		C7.6,12,0.3,17.6,0.3,25.9c0,6.4,4.8,11.4,13.1,12.6l3.5-7.5C11.2,30.4,9.1,28.2,9.1,25.4z">
  </path>
  <path d="M20.4,23.4L16.9,31c5.4,0.5,7.9,2.5,7.9,5.5c0,3.8-4.1,5.7-8.9,5.7c-4.5,0-8.8-1.3-12.6-3.7L0,45.8
		c4.8,2.9,10.4,4.3,15.9,4.1c9.6,0,17.7-5.1,17.7-13.8C33.7,30.2,29.2,24.5,20.4,23.4z">
  </path>
 </g>
</svg>