<?xml version="1.0" encoding="UTF-8"?>
<svg id="Layer_1" data-name="Layer 1" xmlns="http://www.w3.org/2000/svg" viewBox="0 0 1038.3 279.9">
  <path d="M0,166.5v-4.7h1034.6v4.7H0Z" style="fill: #d3202d;"/>
  <g>
    <g>
      <path d="M977.1,9.8V.9h-10.1v10.5h3.9c.4,4-1.8,6.3-6.5,7.1h0l1,4c7.7-.6,11.7-4.2,11.7-12.6Z" style="fill: #d3202d;"/>
      <path d="M1002.6,39.8l-5.6,6.7c6.4,5.7,14.1,8.5,22.2,8.5s19-5.9,19-16-5.9-13-17.1-15.7c-10.2-2.4-12.6-4.3-12.6-8.4s3.2-6.4,8.7-6.4,9.7,1.9,14.5,5.5l5-7.1c-5.4-4.3-11.6-6.7-19.4-6.7s-18.2,6.3-18.2,15.6,6.4,13.3,17.7,16c9.9,2.3,12,4.3,12,8.2s-3.7,6.8-9.4,6.8h0c-6.6,0-11.7-2.6-16.8-7Z" style="fill: #d3202d;"/>
      <path d="M76.6,68.7C57.3,35.9,36.9,1.9,36.9,1.9H0v126.4h34.8V59l39.7,69.3h36.9V1.9h-34.8v66.8Z" style="fill: #d3202d;"/>
      <path d="M295.9,113.1c-4.3,0-7.6,3.5-7.6,7.6s3.3,7.6,7.6,7.6,7.6-3.5,7.6-7.6-3.3-7.6-7.6-7.6ZM302.6,120.7c0,3.7-2.9,6.8-6.8,6.8s-6.7-3-6.7-6.7,2.9-6.8,6.8-6.8,6.7,3,6.7,6.7h0Z" style="fill: #d3202d;"/>
      <polygon points="249.3 128.3 284.1 128.3 284.1 86.3 332.2 86.3 332.2 57 284.1 57 284.1 31.2 346.1 31.2 346.1 1.9 249.3 1.9 249.3 128.3" style="fill: #d3202d;"/>
      <path d="M814.9,41.4h25.2l5.4,12.9h9.9L832,.5h-8.7l-23.5,53.7h9.6l5.5-12.9ZM827.5,11.8l9.2,21.3h-18.4l9.1-21.3Z" style="fill: #d3202d;"/>
      <path d="M299.5,119.1c0-.7-.2-1.4-.7-1.8-.6-.6-1.4-.9-2.5-.9h-3.6v8.1h1.8v-2.6h1.4l1.7,2.6h2.1l-2-2.9c1-.4,1.7-1.2,1.8-2.5ZM297.7,119.2c0,.7-.5,1.1-1.4,1.1h-1.8v-2.4h1.8c.9,0,1.4.4,1.4,1.2h0Z" style="fill: #d3202d;"/>
      <path d="M224.5,70.6h0c6.1-7.1,12.2-16,12.7-28.8.9-21.2-13.9-40.7-46.9-40.1h-63.4v126.4h34.8V30.9h25.9c11.1,0,15.8,4,15.8,10.7s-1.4,8.4-15.1,22.1c-5.2,5.2-16.8,16.2-16.8,16.2h0l30.8,48.4h38.9l-28.8-45.6c.9-.5,7.7-7,12.1-12.1Z" style="fill: #d3202d;"/>
      <path d="M299.5,119.1s0,0,0,0,0,0,0,0h0Z" style="fill: #d3202d;"/>
      <path d="M381.5,20.3h6.5c.5,7.5-3,12.1-11.7,15.2l2.1,6.1c13.3-3,19.2-9.8,19.2-24V1.9h-16.1v18.4Z" style="fill: #d3202d;"/>
      <polygon points="949.8 45.7 921.7 45.7 921.7 .9 912.3 .9 912.3 54.2 949.8 54.2 949.8 45.7" style="fill: #d3202d;"/>
      <path d="M808.7,97.6h0c-10.2-2.5-12.6-4.3-12.6-8.5s3.2-6.4,8.7-6.4,9.7,1.9,14.5,5.5l5-7.1c-5.4-4.3-11.6-6.7-19.4-6.7s-18.2,6.3-18.2,15.6,6.4,13.3,17.7,16c9.9,2.3,12,4.3,12,8.2s-3.7,6.8-9.4,6.8-11.7-2.5-16.8-6.9l-5.6,6.7c6.4,5.7,14.1,8.5,22.2,8.5s19-5.9,19-16-5.9-13-17.1-15.7Z" style="fill: #d3202d;"/>
      <path d="M727.4,106.9h0c0,0,13.7,0,13.7,0v10c-3.3,2.4-7.8,4-12.9,4-10.9,0-18.1-8.1-18.1-19.1s7.5-18.9,17.3-18.9,10.8,2.2,14.9,5.7l5.9-7.1c-5.5-4.6-11.2-7.2-20.5-7.2-16.1,0-27.5,12.6-27.5,27.7s11,27.5,27.7,27.5,17-3.8,22.2-8.3v-22.4h-22.7v8.2Z" style="fill: #d3202d;"/>
      <polygon points="873.3 97.3 847.9 97.3 847.9 75.1 838.5 75.1 838.5 128.4 847.9 128.4 847.9 105.9 873.3 105.9 873.3 128.4 882.7 128.4 882.7 75.1 873.3 75.1 873.3 97.3" style="fill: #d3202d;"/>
      <polygon points="789.5 .9 746.2 .9 746.2 9.6 763.1 9.6 763.1 54.3 772.6 54.3 772.6 9.6 789.5 9.6 789.5 .9" style="fill: #d3202d;"/>
      <rect x="876.9" y=".9" width="9.4" height="53.3" style="fill: #d3202d;"/>
      <path d="M923.5,74.2c-16.4,0-27.9,12.6-27.9,27.7s11.4,27.5,27.8,27.5,27.9-12.6,27.9-27.7-11.4-27.5-27.8-27.5ZM923.5,120.8c-10.6,0-18.1-8.6-18.1-19s7.4-18.9,18-18.9,18.1,8.6,18.1,19-7.4,18.9-18,18.9Z" style="fill: #d3202d;"/>
      <polygon points="1014.3 114.7 1014.2 114.7 1001.1 75 993.2 75 980.1 114.7 967.3 75.1 957.2 75.1 975.8 128.8 983.9 128.8 997 90.5 1010.1 128.8 1018.2 128.8 1036.8 75.1 1027 75.1 1014.3 114.7" style="fill: #d3202d;"/>
      <polygon points="727.1 45.9 696.5 45.9 696.5 31.5 723.3 31.5 723.3 23.2 696.5 23.2 696.5 9.3 726.7 9.3 726.7 .9 687.2 .9 687.2 54.2 727.1 54.2 727.1 45.9" style="fill: #d3202d;"/>
      <path d="M663.9,17.8s0,0,0,0c0,0,0,0,0,0h0Z" style="fill: #d3202d;"/>
      <path d="M654.2,100.7c3.9-2,7.6-5.4,7.6-11.9s-6.8-13.7-17.5-13.7h-23.9v53.3h24.7c11.9,0,19.7-5.1,19.7-14.7s-4.3-10.9-10.5-13ZM629.6,83.4h0s13.5,0,13.5,0c6,0,9.4,2.5,9.4,6.9s-4,7.3-10.1,7.3h-12.8v-14.2ZM645.1,120.1h-15.6v-14.6h14.9c7.4,0,11,2.7,11,7.2s-3.9,7.4-10.3,7.4Z" style="fill: #d3202d;"/>
      <path d="M663.9,17.8c0-10.4-7.6-16.9-19.8-16.9h-23.8v53.3h9.4v-18.6h11.7l13.1,18.6h11.1l-14.4-20.2c7.5-2,12.7-7.4,12.7-16.2ZM629.7,27.3h0s0-17.9,0-17.9h13.7c6.9,0,11.1,3.1,11.1,8.9s-4.3,9-11,9h-13.7Z" style="fill: #d3202d;"/>
      <rect x="677.4" y="75.1" width="9.4" height="53.3" style="fill: #d3202d;"/>
      <path d="M461.6,85c22.2-19.8,31.8-31.2,31.8-49.1v-.3c0-20.3-16.1-35.2-38.3-35.2s-34,10.1-45.3,26.9l8.8,6.3c10.4-14.6,20.3-22.4,35.4-22.4s26.7,9.9,26.7,25.5-7.1,23.1-27.1,41.1l-46.3,41.3v9.4h87.3v-11.3h-68.9l35.9-32.1Z" style="fill: #d3202d;"/>
      <path d="M551.5,49.8c-17.2,0-28.8,7.8-37.5,21.2v-2.4c0-31.8,14.1-57.6,39-57.6s20.8,4.5,30.4,12.8l7.3-9.4c-11.1-9-22.2-14.4-37-14.4-32.4,0-52,30.2-52,68.4v.3c0,26,5.6,38.9,16,49.1,7.6,7.8,19.3,12.7,32.6,12.7,25.3,0,44.9-17.7,44.9-41.8v-.3c0-23.1-20.5-38.5-43.7-38.5ZM582.8,89.2c0,16.8-12.5,30.5-31.9,30.5s-33.7-12.8-33.7-29.7v-.5c0-14.8,13.5-29.1,33.1-29.1s32.4,12.1,32.4,28.5v.3Z" style="fill: #d3202d;"/>
    </g>
    <g>
      <path d="M3.3,258.8l4.4-3.4c3.6,6,7.6,9.1,14.2,9.1s12.3-5.2,12.3-15.2v-40.6h5.9v40.4c0,7-2.1,12.3-5.5,15.7-3.3,3.2-7.8,4.9-12.8,4.9-9,0-14.7-4.6-18.4-10.9Z" style="fill: #d3202d;"/>
      <path d="M84.3,208.3h5.5l27.7,60.6h-6.3l-7.3-16.4h-34l-7.4,16.4h-6l27.7-60.6ZM101.6,247.3l-14.6-32.5-14.7,32.5h29.4Z" style="fill: #d3202d;"/>
      <path d="M137.2,208.7h5.4l39.5,50.1v-50.1h5.6v60.2h-4.5l-40.4-51.2v51.2h-5.6v-60.2Z" style="fill: #d3202d;"/>
      <path d="M211.7,243.8v-35h5.8v34.6c0,13.6,7.2,21.2,19.3,21.2s18.9-7,18.9-20.8v-35h5.8v34.6c0,17.4-10.1,26.5-24.9,26.5s-24.9-9.1-24.9-26.1Z" style="fill: #d3202d;"/>
      <path d="M305.8,208.3h5.5l27.7,60.6h-6.3l-7.3-16.4h-34l-7.4,16.4h-5.9l27.7-60.6ZM323,247.3l-14.6-32.5-14.7,32.5h29.3Z" style="fill: #d3202d;"/>
      <path d="M358.6,208.7h25.6c7.4,0,13.4,2.3,17,6,2.9,2.9,4.6,7,4.6,11.6v.2c0,10-7.1,15.8-17,17.4l19.1,25.1h-7.1l-18.3-24.1h-18.3v24.1h-5.8v-60.2ZM383.6,239.6c9.5,0,16.5-4.8,16.5-13v-.2c0-7.7-6-12.5-16.3-12.5h-19.4v25.6h19.3Z" style="fill: #d3202d;"/>
      <path d="M445.2,245.1l-25.4-36.4h7.1l21.2,31.1,21.4-31.1h6.8l-25.4,36.3v23.9h-5.8v-23.8Z" style="fill: #d3202d;"/>
      <path d="M535,214.3l-11.4,3.7-1.5-4.6,14.3-5h4.3v60.6h-5.7v-54.6Z" style="fill: #d3202d;"/>
      <path d="M572.4,214.3l-11.4,3.7-1.5-4.6,14.3-5h4.3v60.6h-5.7v-54.6Z" style="fill: #d3202d;"/>
      <path d="M600.2,240.2h23.6v6h-23.6v-6Z" style="fill: #d3202d;"/>
      <path d="M649.7,214.3l-11.4,3.7-1.5-4.6,14.3-5h4.3v60.6h-5.7v-54.6Z" style="fill: #d3202d;"/>
      <path d="M676.2,259.2l4.3-3.7c4.7,5.9,10.4,9.3,18.1,9.3s13.9-5,13.9-12.4v-.2c0-7.9-7.4-12.2-17.7-12.2h-3.6l-1.2-3.4,19.8-22.5h-30.3v-5.3h38.1v4.2l-19.6,22c10.9.7,20.5,6,20.5,16.9v.2c0,10.7-9,17.9-19.9,17.9s-17.4-4.4-22.2-10.7Z" style="fill: #d3202d;"/>
      <path d="M775.3,200.3h4.8v79.6h-4.8v-79.6Z" style="fill: #d3202d;"/>
      <path d="M839.7,208.7h5.4l39.5,50.1v-50.1h5.6v60.2h-4.5l-40.4-51.2v51.2h-5.6v-60.2Z" style="fill: #d3202d;"/>
      <path d="M934.3,245.1l-25.4-36.4h7.1l21.2,31.1,21.4-31.1h6.8l-25.4,36.3v23.9h-5.8v-23.8Z" style="fill: #d3202d;"/>
      <path d="M976.4,239v-.2c0-17,12.7-31.1,30.3-31.1s17.4,3.9,23.5,9.5l-4,4.3c-5.2-5-11-8.6-19.6-8.6-13.8,0-24.1,11.3-24.1,25.7v.2c0,14.5,10.5,25.9,24.2,25.9s14.1-3.3,20-9l3.8,3.7c-6.4,6.4-13.2,10.5-24.1,10.5-17.2,0-30-13.6-30-30.9Z" style="fill: #d3202d;"/>
    </g>
  </g>
</svg>